<svg width="64" height="64" xmlns="http://www.w3.org/2000/svg"><path fill="#FF007F" d="M 0 0 L 64 0 L 64 64 L 0 64 L 0 0 Z" id="background"></path><path d="M 31.635 5.157 L 32.366 5.157 L 32.366 9.176 C 40.015 9.234 51.021 11.174 51.021 17.47 L 51.021 46.53 C 51.021 52.818 39.587 54.763 32.366 54.824 L 32.366 58.844 L 31.635 58.844 L 31.635 54.824 C 21.624 54.754 12.979 51.81 12.979 48.193 L 12.979 43.517 C 17.482 46.753 25.936 47.765 31.635 47.807 L 31.635 44.003 C 21.624 43.933 12.979 40.991 12.979 37.372 L 12.979 32.742 C 17.469 35.969 25.918 36.99 31.635 37.032 L 31.635 33.227 C 21.624 33.157 12.979 30.215 12.979 26.596 L 12.979 21.955 C 17.469 25.182 25.918 26.203 31.635 26.245 L 31.635 22.44 C 21.624 22.37 12.979 19.428 12.979 15.809 C 12.979 12.19 21.624 9.246 31.635 9.176 Z M 47.217 46.049 L 47.217 42.168 C 43.279 44.666 37.647 45.517 32.366 45.553 L 32.366 51.019 C 37.91 50.952 47.217 49.309 47.217 46.049 Z M 47.217 36.78 L 47.217 32.284 C 43.288 34.773 37.664 35.631 32.366 35.667 L 32.366 41.749 C 37.91 41.682 47.217 40.038 47.217 36.78 Z M 47.217 26.892 L 47.217 22.381 C 43.279 24.879 37.647 25.729 32.366 25.765 L 32.366 31.861 C 37.864 31.793 47.217 30.157 47.217 26.892 Z M 47.217 17.47 C 47.217 14.754 39.211 13.037 32.366 12.98 L 32.366 21.959 C 37.91 21.898 47.217 20.413 47.217 17.47 Z" style="stroke-opacity: 0; fill: rgb(255, 255, 255);"></path></svg>