<svg viewBox="0 0 64 64" xmlns="http://www.w3.org/2000/svg"><path d="M 0 0 L 64 0 L 64 64 L 0 64 L 0 0 Z" fill="#6C9DCC"></path><path d="M 31.635 54.824 L 32.366 54.824 C 40.015 54.766 51.021 52.826 51.021 46.53 L 51.021 17.47 C 51.021 11.182 39.587 9.237 32.366 9.176 L 31.635 9.176 C 21.624 9.246 12.979 12.19 12.979 15.807 L 12.979 20.483 C 17.482 17.247 25.936 16.235 31.635 16.193 L 31.635 19.997 C 21.624 20.067 12.979 23.009 12.979 26.628 L 12.979 31.258 C 17.469 28.031 25.918 27.01 31.635 26.968 L 31.635 30.773 C 21.624 30.843 12.979 33.785 12.979 37.404 L 12.979 42.045 C 17.469 38.818 25.918 37.797 31.635 37.755 L 31.635 41.56 C 21.624 41.63 12.979 44.572 12.979 48.191 C 12.979 51.81 21.624 54.754 31.635 54.824 Z M 47.217 17.951 L 47.217 21.832 C 43.279 19.334 37.647 18.483 32.366 18.447 L 32.366 12.981 C 37.91 13.048 47.217 14.691 47.217 17.951 Z M 47.217 27.22 L 47.217 31.716 C 43.288 29.227 37.664 28.369 32.366 28.333 L 32.366 22.251 C 37.91 22.318 47.217 23.962 47.217 27.22 Z M 47.217 37.108 L 47.217 41.619 C 43.279 39.121 37.647 38.271 32.366 38.235 L 32.366 32.139 C 37.864 32.207 47.217 33.843 47.217 37.108 Z M 47.217 46.53 C 47.217 49.246 39.211 50.963 32.366 51.02 L 32.366 42.041 C 37.91 42.102 47.217 43.587 47.217 46.53 Z" style="stroke-opacity: 0; fill: rgb(255, 255, 255);" transform="matrix(-1, 0, 0, -1, 64, 64)"></path></svg>