<svg viewBox="0 0 64 64" xmlns="http://www.w3.org/2000/svg"><path d="M 0 0 L 64 0 L 64 64 L 0 64 L 0 0 Z" fill="#6C9DCC"></path><path d="M 31.69 51.354 L 32.31 51.354 C 38.797 51.305 48.129 49.66 48.129 44.321 L 48.129 19.679 C 48.129 14.347 38.434 12.697 32.31 12.646 L 31.69 12.646 C 23.201 12.705 15.871 15.202 15.871 18.269 L 15.871 22.234 C 19.689 19.49 26.858 18.632 31.69 18.596 L 31.69 21.822 C 23.201 21.881 15.871 24.376 15.871 27.445 L 15.871 31.371 C 19.678 28.634 26.843 27.769 31.69 27.733 L 31.69 30.96 C 23.201 31.019 15.871 33.514 15.871 36.582 L 15.871 40.518 C 19.678 37.782 26.843 36.916 31.69 36.88 L 31.69 40.107 C 23.201 40.166 15.871 42.661 15.871 45.73 C 15.871 48.798 23.201 51.295 31.69 51.354 Z M 44.904 20.087 L 44.904 23.378 C 41.564 21.259 36.789 20.538 32.31 20.507 L 32.31 15.872 C 37.012 15.929 44.904 17.322 44.904 20.087 Z M 44.904 27.947 L 44.904 31.759 C 41.572 29.649 36.803 28.921 32.31 28.89 L 32.31 23.733 C 37.012 23.79 44.904 25.184 44.904 27.947 Z M 44.904 36.331 L 44.904 40.157 C 41.564 38.038 36.789 37.318 32.31 37.287 L 32.31 32.118 C 36.973 32.176 44.904 33.563 44.904 36.331 Z M 44.904 44.321 C 44.904 46.624 38.115 48.08 32.31 48.129 L 32.31 40.515 C 37.012 40.566 44.904 41.826 44.904 44.321 Z" style="stroke-opacity: 0; fill: rgb(255, 255, 255);" transform="matrix(-1, 0, 0, -1, 64, 64)"></path></svg>